<svg xmlns="http://www.w3.org/2000/svg" version="1.1" xmlns:xlink="http://www.w3.org/1999/xlink" xmlns:svgjs="http://svgjs.dev/svgjs" width="1440" height="560" preserveAspectRatio="none" viewBox="0 0 1440 560"><g mask="url(&quot;#SvgjsMask1525&quot;)" fill="none"><rect width="1440" height="560" x="0" y="0" fill="url(&quot;#SvgjsLinearGradient1526&quot;)"></rect><path d="M360 263L359 545" stroke-width="8" stroke="url(&quot;#SvgjsLinearGradient1527&quot;)" stroke-linecap="round" class="Down"></path><path d="M557 265L556 530" stroke-width="8" stroke="url(&quot;#SvgjsLinearGradient1528&quot;)" stroke-linecap="round" class="Up"></path><path d="M1346 221L1345 531" stroke-width="6" stroke="url(&quot;#SvgjsLinearGradient1529&quot;)" stroke-linecap="round" class="Down"></path><path d="M1144 102L1143 355" stroke-width="8" stroke="url(&quot;#SvgjsLinearGradient1530&quot;)" stroke-linecap="round" class="Up"></path><path d="M568 14L567 -398" stroke-width="10" stroke="url(&quot;#SvgjsLinearGradient1528&quot;)" stroke-linecap="round" class="Up"></path><path d="M1391 527L1390 773" stroke-width="10" stroke="url(&quot;#SvgjsLinearGradient1530&quot;)" stroke-linecap="round" class="Up"></path><path d="M263 125L262 452" stroke-width="8" stroke="url(&quot;#SvgjsLinearGradient1529&quot;)" stroke-linecap="round" class="Down"></path><path d="M501 345L500 726" stroke-width="10" stroke="url(&quot;#SvgjsLinearGradient1528&quot;)" stroke-linecap="round" class="Up"></path><path d="M287 399L286 590" stroke-width="10" stroke="url(&quot;#SvgjsLinearGradient1530&quot;)" stroke-linecap="round" class="Up"></path><path d="M371 327L370 608" stroke-width="6" stroke="url(&quot;#SvgjsLinearGradient1528&quot;)" stroke-linecap="round" class="Up"></path><path d="M249 476L248 724" stroke-width="10" stroke="url(&quot;#SvgjsLinearGradient1527&quot;)" stroke-linecap="round" class="Down"></path><path d="M9 272L8 543" stroke-width="8" stroke="url(&quot;#SvgjsLinearGradient1528&quot;)" stroke-linecap="round" class="Up"></path><path d="M36 119L35 316" stroke-width="6" stroke="url(&quot;#SvgjsLinearGradient1530&quot;)" stroke-linecap="round" class="Up"></path><path d="M959 228L958 -85" stroke-width="10" stroke="url(&quot;#SvgjsLinearGradient1529&quot;)" stroke-linecap="round" class="Down"></path><path d="M1123 273L1122 114" stroke-width="6" stroke="url(&quot;#SvgjsLinearGradient1527&quot;)" stroke-linecap="round" class="Down"></path><path d="M320 70L319 -192" stroke-width="6" stroke="url(&quot;#SvgjsLinearGradient1528&quot;)" stroke-linecap="round" class="Up"></path><path d="M1282 110L1281 291" stroke-width="8" stroke="url(&quot;#SvgjsLinearGradient1527&quot;)" stroke-linecap="round" class="Down"></path><path d="M630 200L629 586" stroke-width="6" stroke="url(&quot;#SvgjsLinearGradient1527&quot;)" stroke-linecap="round" class="Down"></path><path d="M139 292L138 -115" stroke-width="10" stroke="url(&quot;#SvgjsLinearGradient1529&quot;)" stroke-linecap="round" class="Down"></path><path d="M938 276L937 660" stroke-width="8" stroke="url(&quot;#SvgjsLinearGradient1528&quot;)" stroke-linecap="round" class="Up"></path><path d="M697 194L696 36" stroke-width="8" stroke="url(&quot;#SvgjsLinearGradient1530&quot;)" stroke-linecap="round" class="Up"></path><path d="M712 302L711 705" stroke-width="8" stroke="url(&quot;#SvgjsLinearGradient1530&quot;)" stroke-linecap="round" class="Up"></path><path d="M1269 391L1268 568" stroke-width="10" stroke="url(&quot;#SvgjsLinearGradient1527&quot;)" stroke-linecap="round" class="Down"></path><path d="M287 282L286 439" stroke-width="10" stroke="url(&quot;#SvgjsLinearGradient1527&quot;)" stroke-linecap="round" class="Down"></path><path d="M707 12L706 421" stroke-width="8" stroke="url(&quot;#SvgjsLinearGradient1527&quot;)" stroke-linecap="round" class="Down"></path><path d="M210 250L209 649" stroke-width="6" stroke="url(&quot;#SvgjsLinearGradient1529&quot;)" stroke-linecap="round" class="Down"></path><path d="M423 291L422 669" stroke-width="10" stroke="url(&quot;#SvgjsLinearGradient1527&quot;)" stroke-linecap="round" class="Down"></path><path d="M418 280L417 13" stroke-width="10" stroke="url(&quot;#SvgjsLinearGradient1529&quot;)" stroke-linecap="round" class="Down"></path><path d="M884 196L883 417" stroke-width="8" stroke="url(&quot;#SvgjsLinearGradient1528&quot;)" stroke-linecap="round" class="Up"></path><path d="M804 138L803 556" stroke-width="6" stroke="url(&quot;#SvgjsLinearGradient1528&quot;)" stroke-linecap="round" class="Up"></path><path d="M1250 291L1249 613" stroke-width="8" stroke="url(&quot;#SvgjsLinearGradient1530&quot;)" stroke-linecap="round" class="Up"></path><path d="M196 123L195 400" stroke-width="8" stroke="url(&quot;#SvgjsLinearGradient1528&quot;)" stroke-linecap="round" class="Up"></path><path d="M538 405L537 59" stroke-width="6" stroke="url(&quot;#SvgjsLinearGradient1528&quot;)" stroke-linecap="round" class="Up"></path><path d="M448 194L447 491" stroke-width="6" stroke="url(&quot;#SvgjsLinearGradient1528&quot;)" stroke-linecap="round" class="Up"></path><path d="M667 44L666 261" stroke-width="6" stroke="url(&quot;#SvgjsLinearGradient1527&quot;)" stroke-linecap="round" class="Down"></path><path d="M1355 44L1354 261" stroke-width="10" stroke="url(&quot;#SvgjsLinearGradient1527&quot;)" stroke-linecap="round" class="Down"></path></g><defs><mask id="SvgjsMask1525"><rect width="1440" height="560" fill="#ffffff"></rect></mask><linearGradient x1="15.28%" y1="-39.29%" x2="84.72%" y2="139.29%" gradientUnits="userSpaceOnUse" id="SvgjsLinearGradient1526"><stop stop-color="#0e2a47" offset="0"></stop><stop stop-color="rgba(94, 146, 212, 1)" offset="1"></stop></linearGradient><linearGradient x1="0%" y1="0%" x2="0%" y2="100%" id="SvgjsLinearGradient1527"><stop stop-color="rgba(139, 139, 139, 0)" offset="0"></stop><stop stop-color="rgba(139, 139, 139, 1)" offset="1"></stop></linearGradient><linearGradient x1="0%" y1="100%" x2="0%" y2="0%" id="SvgjsLinearGradient1528"><stop stop-color="rgba(139, 139, 139, 0)" offset="0"></stop><stop stop-color="rgba(139, 139, 139, 1)" offset="1"></stop></linearGradient><linearGradient x1="0%" y1="0%" x2="0%" y2="100%" id="SvgjsLinearGradient1529"><stop stop-color="rgba(66, 85, 90, 0)" offset="0"></stop><stop stop-color="rgba(66, 85, 90, 1)" offset="1"></stop></linearGradient><linearGradient x1="0%" y1="100%" x2="0%" y2="0%" id="SvgjsLinearGradient1530"><stop stop-color="rgba(66, 85, 90, 0)" offset="0"></stop><stop stop-color="rgba(66, 85, 90, 1)" offset="1"></stop></linearGradient></defs></svg>